<svg xmlns="http://www.w3.org/2000/svg" xmlns:xlink="http://www.w3.org/1999/xlink" viewBox="0 0 256.16 95.94"><defs><style>.cls-1{fill:#171717;}.cls-2{fill:#fff;}.cls-3{fill:url(#New_Gradient_Swatch_13);}</style><linearGradient id="New_Gradient_Swatch_13" x1="45.34" y1="128.36" x2="222.75" y2="-44.1" gradientUnits="userSpaceOnUse"><stop offset="0" stop-color="#56e7f2"/><stop offset="0.29" stop-color="#c2a7de"/><stop offset="0.62" stop-color="#e8fba9"/><stop offset="0.84" stop-color="#32abdf"/><stop offset="1" stop-color="#fefcef"/></linearGradient></defs><g id="Layer_2" data-name="Layer 2"><g id="OBJECTS"><path class="cls-1" d="M188.71,95.56c14.67,0,31.56-8.14,45.2-21.78C256.26,51.43,262.44,22.58,248,8.11,242.91,3.05,235.83.38,227.49.38,217.79.38,207,4,196.71,10.52a25.67,25.67,0,0,0-2.12-2.42c-5.06-5-12.13-7.72-20.47-7.72-9.7,0-20.51,3.58-30.79,10.14a25.57,25.57,0,0,0-2.11-2.42c-5.06-5-12.14-7.72-20.47-7.72C111.05.38,100.24,4,90,10.52a24.26,24.26,0,0,0-2.11-2.41C82.79,3.05,75.71.37,67.37.37c-14.66,0-31.56,8.15-45.2,21.79C11.76,32.57,4.47,44.94,1.65,57c-3,12.74-.68,23.69,6.47,30.84,5.05,5.06,12.13,7.73,20.47,7.73h0c9.7,0,20.51-3.58,30.78-10.15a24.64,24.64,0,0,0,2.12,2.42c5.06,5.06,12.13,7.73,20.47,7.73,9.7,0,20.51-3.58,30.79-10.15a23.3,23.3,0,0,0,2.11,2.42c5.06,5.06,12.14,7.73,20.47,7.73,9.71,0,20.51-3.58,30.79-10.15a23.3,23.3,0,0,0,2.11,2.42C173.29,92.89,180.37,95.56,188.71,95.56Z"/><path class="cls-2" d="M188.71,95.94c-8.44,0-15.61-2.71-20.74-7.84A23.72,23.72,0,0,1,166,85.91c-10.22,6.47-21.11,10-30.7,10-8.44,0-15.61-2.71-20.73-7.83a23.72,23.72,0,0,1-1.94-2.19c-10.22,6.47-21.11,10-30.7,10-8.44,0-15.61-2.71-20.73-7.83a23.72,23.72,0,0,1-1.94-2.19c-10.22,6.47-21.11,10-30.7,10-8.44,0-15.61-2.71-20.74-7.83C.6,80.85-1.73,69.77,1.28,56.91c2.84-12.12,10.16-24.56,20.63-35C35.61,8.18,52.61,0,67.37,0,75.81,0,83,2.71,88.11,7.84A23.6,23.6,0,0,1,90.05,10c10.22-6.46,21.11-10,30.7-10,8.44,0,15.61,2.71,20.73,7.84A23.6,23.6,0,0,1,143.42,10c10.22-6.46,21.11-10,30.7-10,8.44,0,15.61,2.71,20.73,7.84A23.6,23.6,0,0,1,196.79,10C207,3.56,217.9,0,227.49,0c8.44,0,15.61,2.71,20.74,7.84,7.09,7.09,9.54,17.83,6.88,30.23s-10.07,25.12-20.93,36C220.47,87.75,203.47,95.94,188.71,95.94ZM166.12,85a.38.38,0,0,1,.3.15,26.05,26.05,0,0,0,2.08,2.38c5,5,12,7.62,20.21,7.62,14.57,0,31.37-8.1,44.94-21.67,10.76-10.76,18.12-23.41,20.73-35.61s.22-22.63-6.68-29.54c-5-5-12-7.62-20.21-7.62-9.54,0-20.4,3.59-30.58,10.09a.36.36,0,0,1-.5-.09,23.72,23.72,0,0,0-2.09-2.38c-5-5-12-7.62-20.2-7.62-9.54,0-20.4,3.59-30.58,10.09a.37.37,0,0,1-.5-.09A25.05,25.05,0,0,0,141,8.37c-5-5-12-7.62-20.2-7.62-9.54,0-20.4,3.59-30.59,10.09a.35.35,0,0,1-.49-.09,25.05,25.05,0,0,0-2.09-2.38c-5-5-12-7.62-20.21-7.62C52.8.75,36,8.85,22.44,22.42,12.07,32.78,4.82,45.09,2,57.08c-2.95,12.6-.69,23.43,6.37,30.49,5,5,12,7.61,20.21,7.61,9.54,0,20.4-3.58,30.58-10.08a.36.36,0,0,1,.5.09,24.72,24.72,0,0,0,2.09,2.38c5,5,12,7.61,20.2,7.61,9.54,0,20.4-3.58,30.58-10.08a.36.36,0,0,1,.5.09,25.05,25.05,0,0,0,2.09,2.38c5,5,12,7.61,20.2,7.61,9.54,0,20.4-3.58,30.59-10.08A.36.36,0,0,1,166.12,85Z"/><path class="cls-3" d="M25,25c20.45-20.45,47.32-26.74,60-14a20.79,20.79,0,0,1,3.78,5.21C107.21,3,127.77.31,138.39,10.93a20.79,20.79,0,0,1,3.78,5.21C160.58,3,181.14.31,191.76,10.93a20.79,20.79,0,0,1,3.78,5.21C214,3,234.51.31,245.13,10.93c12.7,12.7,6.41,39.57-14,60s-47.32,26.75-60,14a20.81,20.81,0,0,1-3.78-5.2c-18.41,13.15-39,15.83-49.59,5.2a20.56,20.56,0,0,1-3.78-5.2C95.5,93,74.94,95.63,64.32,85a20.56,20.56,0,0,1-3.78-5.2C42.13,93,21.57,95.63,11,85-1.75,72.31,4.54,45.44,25,25Z"/></g></g></svg>