<svg xmlns="http://www.w3.org/2000/svg" xmlns:xlink="http://www.w3.org/1999/xlink" viewBox="0 0 124.05 124.05"><defs><style>.cls-1{fill:#171717;}.cls-2{fill:#fff;}.cls-3{fill:url(#New_Gradient_Swatch_13);}</style><linearGradient id="New_Gradient_Swatch_13" x1="-7.87" y1="127.38" x2="127.24" y2="1.05" gradientUnits="userSpaceOnUse"><stop offset="0" stop-color="#56e7f2"/><stop offset="0.29" stop-color="#c2a7de"/><stop offset="0.62" stop-color="#e8fba9"/><stop offset="0.84" stop-color="#32abdf"/><stop offset="1" stop-color="#fefcef"/></linearGradient></defs><g id="Layer_2" data-name="Layer 2"><g id="OBJECTS"><circle class="cls-1" cx="62.02" cy="62.02" r="61.65" transform="translate(-3.76 4.01) rotate(-3.59)"/><path class="cls-2" d="M62,124.05a62,62,0,1,1,62-62A62.1,62.1,0,0,1,62,124.05ZM62,.75A61.28,61.28,0,1,0,123.3,62,61.35,61.35,0,0,0,62,.75Z"/><circle class="cls-3" cx="62.02" cy="62.02" r="57.19"/><path d="M107.67,60.73a8.11,8.11,0,0,1-1.85.64,43.95,43.95,0,0,1-87.84,0,8.11,8.11,0,0,1-1.85-.64,1.74,1.74,0,0,1,1.55-3.11,4.48,4.48,0,0,0,4,0,1.74,1.74,0,0,1,1.55,3.12,7.6,7.6,0,0,1-1.77.62,40.48,40.48,0,0,0,80.9,0,7.6,7.6,0,0,1-1.77-.62,1.74,1.74,0,0,1,1.55-3.12,4.55,4.55,0,0,0,4,0,1.74,1.74,0,0,1,1.55,3.11Zm-60,14.77c3.75,0,6.79-6.8,6.79-15.2s-3-15.19-6.79-15.19-6.78,6.8-6.78,15.19S43.91,75.5,47.65,75.5Zm28.49,0c3.75,0,6.79-6.8,6.79-15.2s-3-15.19-6.79-15.19-6.78,6.8-6.78,15.19S72.4,75.5,76.14,75.5Z"/></g></g></svg>