<?xml version="1.0" encoding="utf-8" standalone="yes"?>
<!DOCTYPE svg PUBLIC "-//W3C//DTD SVG 1.1//EN" "http://www.w3.org/Graphics/SVG/1.1/DTD/svg11.dtd">
<svg xmlns:xlink="http://www.w3.org/1999/xlink" viewBox="0 0 1013 198" class="barcode-canvas" version="1.1" style="shape-rendering:crispEdges;" xmlns="http://www.w3.org/2000/svg">
  <g text-rendering="geometricPrecision">
    <rect x="0" y="0" width="1013" height="198" fill="#ffffff" />
    <rect x="12" y="7" width="5" height="113" fill="#000000" />
    <rect x="27" y="7" width="15" height="113" fill="#000000" />
    <rect x="62" y="7" width="5" height="113" fill="#000000" />
    <rect x="82" y="7" width="5" height="113" fill="#000000" />
    <rect x="92" y="7" width="10" height="113" fill="#000000" />
    <rect x="107" y="7" width="40" height="113" fill="#000000" />
    <rect x="167" y="7" width="5" height="113" fill="#000000" />
    <rect x="177" y="7" width="5" height="113" fill="#000000" />
    <rect x="212" y="7" width="5" height="113" fill="#000000" />
    <rect x="237" y="7" width="10" height="113" fill="#000000" />
    <rect x="252" y="7" width="5" height="113" fill="#000000" />
    <rect x="262" y="7" width="15" height="113" fill="#000000" />
    <rect x="287" y="7" width="10" height="113" fill="#000000" />
    <rect x="302" y="7" width="20" height="113" fill="#000000" />
    <rect x="332" y="7" width="5" height="113" fill="#000000" />
    <rect x="347" y="7" width="5" height="113" fill="#000000" />
    <rect x="357" y="7" width="30" height="113" fill="#000000" />
    <rect x="407" y="7" width="15" height="113" fill="#000000" />
    <rect x="427" y="7" width="5" height="113" fill="#000000" />
    <rect x="452" y="7" width="5" height="113" fill="#000000" />
    <rect x="482" y="7" width="15" height="113" fill="#000000" />
    <rect x="502" y="7" width="5" height="113" fill="#000000" />
    <rect x="522" y="7" width="5" height="113" fill="#000000" />
    <rect x="532" y="7" width="5" height="113" fill="#000000" />
    <rect x="542" y="7" width="15" height="113" fill="#000000" />
    <rect x="562" y="7" width="30" height="113" fill="#000000" />
    <rect x="607" y="7" width="30" height="113" fill="#000000" />
    <rect x="657" y="7" width="5" height="113" fill="#000000" />
    <rect x="667" y="7" width="10" height="113" fill="#000000" />
    <rect x="687" y="7" width="15" height="113" fill="#000000" />
    <rect x="722" y="7" width="10" height="113" fill="#000000" />
    <rect x="737" y="7" width="10" height="113" fill="#000000" />
    <rect x="752" y="7" width="5" height="113" fill="#000000" />
    <rect x="762" y="7" width="10" height="113" fill="#000000" />
    <rect x="787" y="7" width="10" height="113" fill="#000000" />
    <rect x="802" y="7" width="25" height="113" fill="#000000" />
    <rect x="837" y="7" width="5" height="113" fill="#000000" />
    <rect x="847" y="7" width="40" height="113" fill="#000000" />
    <rect x="897" y="7" width="15" height="113" fill="#000000" />
    <rect x="917" y="7" width="25" height="113" fill="#000000" />
    <rect x="957" y="7" width="5" height="113" fill="#000000" />
    <rect x="972" y="7" width="15" height="113" fill="#000000" />
    <rect x="992" y="7" width="5" height="113" fill="#000000" />
    <rect x="1002" y="7" width="5" height="113" fill="#000000" />
    <g transform="translate(380, 123)">
      <path d="M 30.022 39.551 C 30.022 41.455 29.55 43.077 28.605 44.418 C 27.66 45.758 26.338 46.78 24.639 47.483 C 22.939 48.186 20.94 48.538 18.64 48.538 C 17.424 48.538 16.274 48.479 15.19 48.362 C 14.106 48.245 13.11 48.076 12.202 47.856 C 11.294 47.637 10.496 47.366 9.807 47.043 L 9.807 43.462 C 12.004 44.37 15.337 45.308 18.794 45.308 C 20.405 45.308 21.768 45.092 22.881 44.659 C 23.994 44.227 24.84 43.605 25.419 42.792 C 25.997 41.979 26.287 41.001 26.287 39.858 C 26.287 38.76 26.045 37.841 25.562 37.101 C 25.078 36.361 24.276 35.687 23.156 35.079 C 22.035 34.471 20.508 33.823 18.574 33.135 C 17.212 32.651 16.011 32.12 14.971 31.542 C 13.931 30.963 13.059 30.308 12.356 29.575 C 11.653 28.843 11.122 27.993 10.763 27.026 C 10.404 26.06 10.225 24.954 10.225 23.708 C 10.225 21.995 10.66 20.526 11.532 19.303 C 12.404 18.08 13.612 17.142 15.157 16.49 C 16.703 15.839 18.479 15.513 20.486 15.513 C 23.914 15.513 26.821 16.208 29.253 17.292 L 28.088 20.5 C 25.774 19.534 23.152 18.809 20.398 18.809 C 19.021 18.809 17.86 19.01 16.915 19.413 C 15.97 19.816 15.249 20.383 14.751 21.116 C 14.253 21.848 14.004 22.72 14.004 23.73 C 14.004 24.858 14.242 25.796 14.718 26.543 C 15.194 27.29 15.956 27.953 17.003 28.531 C 18.051 29.11 19.438 29.714 21.167 30.344 C 23.057 31.033 24.661 31.761 25.979 32.531 C 27.297 33.3 28.301 34.237 28.989 35.343 C 29.678 36.449 30.022 37.852 30.022 39.551 Z M 46.033 23.577 C 48.084 23.577 49.842 24.031 51.307 24.939 C 52.772 25.847 53.892 27.118 54.668 28.751 C 55.445 30.385 55.833 32.292 55.833 34.475 L 55.833 36.738 L 39.2 36.738 C 39.288 42.393 42.115 45.417 47.066 45.417 C 50.113 45.417 52.237 44.854 54.756 43.77 L 54.756 46.978 C 52.325 48.062 50.164 48.538 46.912 48.538 C 44.598 48.538 42.58 48.065 40.859 47.12 C 39.137 46.176 37.801 44.788 36.849 42.957 C 35.897 41.125 35.42 38.884 35.42 36.233 C 35.42 33.64 35.856 31.395 36.728 29.498 C 37.599 27.601 38.83 26.14 40.419 25.115 C 42.009 24.089 43.88 23.577 46.033 23.577 Z M 45.989 26.565 C 42.093 26.565 39.705 29.246 39.266 33.816 L 52.01 33.816 C 51.995 32.38 51.772 31.117 51.34 30.026 C 50.907 28.934 50.252 28.085 49.373 27.477 C 48.494 26.869 47.366 26.565 45.989 26.565 Z M 83.552 36.013 C 83.552 37.991 83.295 39.756 82.782 41.309 C 82.27 42.861 81.53 44.172 80.563 45.242 C 79.596 46.311 78.428 47.128 77.059 47.692 C 75.689 48.256 74.14 48.538 72.411 48.538 C 70.8 48.538 69.324 48.256 67.984 47.692 C 66.644 47.128 65.486 46.311 64.512 45.242 C 63.538 44.172 62.784 42.861 62.249 41.309 C 61.714 39.756 61.447 37.991 61.447 36.013 C 61.447 33.376 61.894 31.132 62.787 29.279 C 63.681 27.426 64.959 26.012 66.622 25.038 C 68.284 24.064 70.265 23.577 72.565 23.577 C 74.762 23.577 76.685 24.067 78.333 25.049 C 79.981 26.03 81.263 27.448 82.178 29.301 C 83.094 31.154 83.552 33.391 83.552 36.013 Z M 65.226 36.013 C 65.226 37.947 65.483 39.624 65.995 41.045 C 66.508 42.466 67.299 43.564 68.368 44.341 C 69.438 45.117 70.815 45.505 72.499 45.505 C 74.169 45.505 75.543 45.117 76.619 44.341 C 77.696 43.564 78.491 42.466 79.003 41.045 C 79.516 39.624 79.772 37.947 79.772 36.013 C 79.772 34.094 79.516 32.435 79.003 31.036 C 78.491 29.637 77.699 28.557 76.63 27.795 C 75.561 27.034 74.177 26.653 72.477 26.653 C 67.468 26.653 65.226 30.154 65.226 36.013 Z M 111.455 32.08 L 120.002 15.974 L 124.023 15.974 L 113.323 35.64 L 113.323 48.098 L 109.587 48.098 L 109.587 35.815 L 98.865 15.974 L 102.952 15.974 Z M 137.896 23.577 C 139.947 23.577 141.704 24.031 143.169 24.939 C 144.634 25.847 145.755 27.118 146.531 28.751 C 147.307 30.385 147.696 32.292 147.696 34.475 L 147.696 36.738 L 131.062 36.738 C 131.15 42.393 133.977 45.417 138.929 45.417 C 141.975 45.417 144.099 44.854 146.619 43.77 L 146.619 46.978 C 144.187 48.062 142.027 48.538 138.775 48.538 C 136.46 48.538 134.442 48.065 132.721 47.12 C 131 46.176 129.663 44.788 128.711 42.957 C 127.759 41.125 127.283 38.884 127.283 36.233 C 127.283 33.64 127.719 31.395 128.59 29.498 C 129.462 27.601 130.692 26.14 132.282 25.115 C 133.871 24.089 135.743 23.577 137.896 23.577 Z M 137.852 26.565 C 133.955 26.565 131.568 29.246 131.128 33.816 L 143.872 33.816 C 143.858 32.38 143.634 31.117 143.202 30.026 C 142.77 28.934 142.115 28.085 141.236 27.477 C 140.357 26.869 139.229 26.565 137.852 26.565 Z M 175.414 36.013 C 175.414 37.991 175.158 39.756 174.645 41.309 C 174.132 42.861 173.393 44.172 172.426 45.242 C 171.459 46.311 170.291 47.128 168.921 47.692 C 167.552 48.256 166.003 48.538 164.274 48.538 C 162.663 48.538 161.187 48.256 159.847 47.692 C 158.506 47.128 157.349 46.311 156.375 45.242 C 155.401 44.172 154.646 42.861 154.112 41.309 C 153.577 39.756 153.31 37.991 153.31 36.013 C 153.31 33.376 153.756 31.132 154.65 29.279 C 155.544 27.426 156.822 26.012 158.484 25.038 C 160.147 24.064 162.128 23.577 164.428 23.577 C 166.625 23.577 168.548 24.067 170.196 25.049 C 171.844 26.03 173.125 27.448 174.041 29.301 C 174.956 31.154 175.414 33.391 175.414 36.013 Z M 157.089 36.013 C 157.089 37.947 157.345 39.624 157.858 41.045 C 158.371 42.466 159.162 43.564 160.231 44.341 C 161.3 45.117 162.677 45.505 164.362 45.505 C 166.032 45.505 167.405 45.117 168.482 44.341 C 169.558 43.564 170.353 42.466 170.866 41.045 C 171.379 39.624 171.635 37.947 171.635 36.013 C 171.635 34.094 171.379 32.435 170.866 31.036 C 170.353 29.637 169.562 28.557 168.493 27.795 C 167.423 27.034 166.039 26.653 164.34 26.653 C 159.33 26.653 157.089 30.154 157.089 36.013 Z M 193.936 23.577 C 199.649 23.577 202.615 26.228 202.615 32.41 L 202.615 48.098 L 199.012 48.098 L 199.012 32.651 C 199.012 28.638 197.21 26.653 193.431 26.653 C 188.099 26.653 186.18 29.744 186.18 35.486 L 186.18 48.098 L 182.532 48.098 L 182.532 24.016 L 185.477 24.016 L 186.026 27.488 L 186.224 27.488 C 186.737 26.638 187.388 25.924 188.179 25.345 C 188.97 24.767 189.857 24.327 190.838 24.027 C 191.82 23.727 192.852 23.577 193.936 23.577 Z M 208.058 58.909 C 206.563 58.909 205.472 58.652 204.652 58.359 L 204.652 55.393 C 205.56 55.686 206.446 55.854 207.618 55.854 C 209.61 55.854 210.958 54.917 210.958 51.987 L 210.958 24.016 L 214.605 24.016 L 214.605 51.899 C 214.605 53.364 214.371 54.62 213.902 55.668 C 213.434 56.715 212.716 57.517 211.749 58.074 C 210.782 58.63 209.552 58.909 208.058 58.909 Z M 210.628 17.402 C 210.628 15.762 211.566 15.007 212.826 15.007 C 214.027 15.007 215.023 15.762 215.023 17.402 C 215.023 19.014 214.027 19.797 212.826 19.797 C 211.566 19.797 210.628 19.014 210.628 17.402 Z M 242.544 24.016 L 242.544 48.098 L 239.556 48.098 L 239.028 44.714 L 238.831 44.714 C 238.332 45.549 237.688 46.252 236.897 46.824 C 236.106 47.395 235.216 47.823 234.227 48.109 C 233.238 48.395 232.187 48.538 231.074 48.538 C 229.17 48.538 227.573 48.23 226.284 47.615 C 224.995 47 224.025 46.047 223.373 44.758 C 222.721 43.469 222.395 41.814 222.395 39.792 L 222.395 24.016 L 226.086 24.016 L 226.086 39.529 C 226.086 43.542 227.881 45.505 231.602 45.505 C 233.389 45.505 234.813 45.168 235.875 44.495 C 236.937 43.821 237.703 42.828 238.171 41.517 C 238.64 40.206 238.874 38.599 238.874 36.694 L 238.874 24.016 Z " fill="#000000" shape-rendering="geometricPrecision" />
    </g>
  </g>
</svg>