<svg width="21" height="20" viewBox="0 0 21 20" fill="none" xmlns="http://www.w3.org/2000/svg">
<g clip-path="url(#clip0_37_51)">
<path d="M10.72 0.244141C11.638 0.244141 12.5234 0.361328 13.3763 0.595703C14.2291 0.830078 15.0234 1.16862 15.7591 1.61133C16.4948 2.05404 17.1686 2.57487 17.7806 3.17383C18.3926 3.77279 18.9166 4.44661 19.3528 5.19531C19.789 5.94401 20.1243 6.74154 20.3587 7.58789C20.5931 8.43425 20.7135 9.31966 20.72 10.2441C20.72 11.3184 20.5573 12.3535 20.2318 13.3496C19.9062 14.3457 19.4407 15.2604 18.8353 16.0938C18.2298 16.9271 17.5104 17.6562 16.6771 18.2812C15.8437 18.9062 14.9127 19.3913 13.8841 19.7363C13.8646 19.7428 13.8353 19.7461 13.7962 19.7461C13.7571 19.7461 13.7278 19.7493 13.7083 19.7559C13.5521 19.7559 13.4284 19.7103 13.3372 19.6191C13.2461 19.528 13.2005 19.4076 13.2005 19.2578V17.8906C13.2005 17.4414 13.2038 16.9824 13.2103 16.5137C13.2103 16.1816 13.1614 15.8464 13.0638 15.5078C12.9661 15.1693 12.7903 14.8861 12.5364 14.6582C13.2916 14.5736 13.9525 14.4206 14.5189 14.1992C15.0853 13.9779 15.5605 13.6654 15.9446 13.2617C16.3288 12.8581 16.6152 12.3698 16.804 11.7969C16.9928 11.224 17.0905 10.5339 17.097 9.72656C17.097 9.21875 17.0124 8.74023 16.8431 8.29102C16.6738 7.8418 16.4166 7.42513 16.0716 7.04102C16.1432 6.85872 16.1953 6.66992 16.2278 6.47461C16.2604 6.2793 16.2767 6.08398 16.2767 5.88867C16.2767 5.63477 16.2506 5.38411 16.1985 5.13672C16.1465 4.88932 16.0716 4.64193 15.9739 4.39453C15.9414 4.38151 15.9056 4.375 15.8665 4.375C15.8275 4.375 15.7916 4.375 15.7591 4.375C15.5508 4.375 15.3327 4.40755 15.1048 4.47266C14.8769 4.53776 14.6523 4.6224 14.431 4.72656C14.2096 4.83073 13.9915 4.94466 13.7767 5.06836C13.5618 5.19206 13.3763 5.30924 13.22 5.41992C12.4062 5.19206 11.5729 5.07812 10.72 5.07812C9.86717 5.07812 9.03383 5.19206 8.22003 5.41992C8.05727 5.30924 7.87172 5.19206 7.66339 5.06836C7.45506 4.94466 7.24021 4.83398 7.01886 4.73633C6.79751 4.63867 6.56964 4.55404 6.33527 4.48242C6.10089 4.41081 5.88279 4.375 5.68097 4.375H5.57355C5.53448 4.375 5.49868 4.38151 5.46613 4.39453C5.37498 4.63542 5.30337 4.87956 5.25128 5.12695C5.1992 5.37435 5.1699 5.62826 5.16339 5.88867C5.16339 6.08398 5.17967 6.2793 5.21222 6.47461C5.24477 6.66992 5.29685 6.85872 5.36847 7.04102C5.02342 7.41862 4.76626 7.83203 4.59698 8.28125C4.42771 8.73047 4.34308 9.21224 4.34308 9.72656C4.34308 10.5208 4.43748 11.2077 4.62628 11.7871C4.81508 12.3665 5.10154 12.8548 5.48566 13.252C5.86977 13.6491 6.34503 13.9648 6.91144 14.1992C7.47784 14.4336 8.13865 14.5898 8.89386 14.668C8.70506 14.8372 8.56183 15.0391 8.46417 15.2734C8.36652 15.5078 8.29816 15.752 8.25909 16.0059C8.08331 16.0905 7.89777 16.1556 7.70245 16.2012C7.50714 16.2467 7.31183 16.2695 7.11652 16.2695C6.69985 16.2695 6.3548 16.1719 6.08136 15.9766C5.80792 15.7812 5.56378 15.5143 5.34894 15.1758C5.27081 15.0521 5.17641 14.9284 5.06573 14.8047C4.95506 14.681 4.83462 14.5703 4.70441 14.4727C4.5742 14.375 4.43422 14.2969 4.28448 14.2383C4.13475 14.1797 3.9785 14.1471 3.81573 14.1406H3.69855C3.64646 14.1406 3.59764 14.1504 3.55206 14.1699C3.50649 14.1895 3.46092 14.209 3.41534 14.2285C3.36977 14.248 3.35024 14.2806 3.35675 14.3262C3.35675 14.4043 3.40232 14.4792 3.49347 14.5508C3.58461 14.6224 3.65948 14.681 3.71808 14.7266L3.74738 14.7461C3.8906 14.8568 4.0143 14.9609 4.11847 15.0586C4.22264 15.1562 4.32029 15.2637 4.41144 15.3809C4.50258 15.498 4.57745 15.6217 4.63605 15.752C4.69464 15.8822 4.76951 16.0352 4.86066 16.2109C5.08201 16.7188 5.39126 17.0866 5.78839 17.3145C6.18553 17.5423 6.66404 17.6595 7.22394 17.666C7.39321 17.666 7.56248 17.6562 7.73175 17.6367C7.90102 17.6172 8.07029 17.5879 8.23956 17.5488V19.248C8.23956 19.4043 8.19399 19.528 8.10284 19.6191C8.0117 19.7103 7.88475 19.7559 7.72198 19.7559H7.64386C7.61131 19.7559 7.58201 19.7493 7.55597 19.7363C6.53383 19.4043 5.60284 18.9258 4.763 18.3008C3.92316 17.6758 3.20376 16.9434 2.6048 16.1035C2.00584 15.2637 1.5436 14.3457 1.21808 13.3496C0.892558 12.3535 0.726542 11.3184 0.720032 10.2441C0.720032 9.32617 0.837219 8.44075 1.07159 7.58789C1.30597 6.73503 1.64451 5.94076 2.08722 5.20508C2.52993 4.4694 3.05076 3.79557 3.64972 3.18359C4.24868 2.57161 4.92251 2.04753 5.6712 1.61133C6.4199 1.17513 7.21743 0.839844 8.06378 0.605469C8.91014 0.371094 9.79555 0.250651 10.72 0.244141Z" fill="black"/>
</g>
<defs>
<clipPath id="clip0_37_51">
<rect width="20" height="20" fill="white" transform="translate(0.720032)"/>
</clipPath>
</defs>
</svg>
