<svg xmlns="http://www.w3.org/2000/svg" xmlns:xlink="http://www.w3.org/1999/xlink" viewBox="0 0 138.93 151.44"><defs><style>.cls-1{fill:#171717;}.cls-2{fill:#fff;}.cls-3{fill:url(#New_Gradient_Swatch_13);}</style><linearGradient id="New_Gradient_Swatch_13" x1="12.74" y1="116.91" x2="141.26" y2="30.13" gradientUnits="userSpaceOnUse"><stop offset="0" stop-color="#56e7f2"/><stop offset="0.29" stop-color="#c2a7de"/><stop offset="0.62" stop-color="#e8fba9"/><stop offset="0.84" stop-color="#32abdf"/><stop offset="1" stop-color="#fefcef"/></linearGradient></defs><g id="Layer_2" data-name="Layer 2"><g id="OBJECTS"><path class="cls-1" d="M101.11,33l-.37-.07c-12.7-1.76-21-10.82-24-14.63C70.66,10.54,64.45,3.37,55.31,1A19.47,19.47,0,0,0,50.45.38a14.23,14.23,0,0,0-8.67,2.7,11,11,0,0,0-4.32,6.36c-1.38,6.3,3.44,12,8.54,15.26a9.33,9.33,0,0,0-1.64.65,10,10,0,0,0-5.09,6.74c-.78-.9-1.58-1.8-2.42-2.67-5.53-5.74-12.31-9-18.59-9a17.47,17.47,0,0,0-5.2.78C4.72,23.74-.86,33.26.61,42.38c1.31,8.09,7.6,15.24,16,18.19,5,1.76,10.18,2,15.16,2.14,2.29.09,4.45.17,6.58.4C45.6,63.87,49.73,65.78,51,69a3.87,3.87,0,0,1-.64,4,4,4,0,0,1-3.05,1.38A3.13,3.13,0,0,1,45.88,74a11.88,11.88,0,0,1-2.54-2.28l-.2-.21a15.3,15.3,0,0,0-5.24-4,8.67,8.67,0,0,0-3.31-.64,9.29,9.29,0,0,0-8.8,6.3,9.87,9.87,0,0,0,4.68,11.54,15.67,15.67,0,0,0,4.19,1.41c.58.13,1.12.26,1.58.41a5.47,5.47,0,0,1,2.92,2.16,3.72,3.72,0,0,1,.49,2.94A2.53,2.53,0,0,1,38,93.32a4,4,0,0,1-1,.11A8.33,8.33,0,0,1,34.49,93c-1-.35-2.48-2.08-3.39-3.11-.67-.77-1.32-1.58-2-2.44a34.09,34.09,0,0,0-6.64-6.8,15.36,15.36,0,0,0-8.67-2.86,10.86,10.86,0,0,0-6.95,2.36C3,83.28,1.22,90.06,5,96c2.33,3.63,6.29,6.32,11.77,8,1.78.54,3.55.94,5.26,1.33a52,52,0,0,1,6,1.6c8.63,3.08,15.07,10.94,21.3,18.54l1.67,2a78.41,78.41,0,0,0,17.56,15.07c6.14,3.9,15.42,8.54,24.77,8.54h1.43c23.63,0,42.86-25.48,43.78-58C139.39,62.13,123.33,36.4,101.11,33Z"/><path class="cls-2" d="M94.75,151.44H93.32c-9.44,0-18.79-4.68-25-8.6A79,79,0,0,1,50.7,127.69l-1.67-2c-6.2-7.57-12.6-15.38-21.13-18.43a52.15,52.15,0,0,0-5.9-1.58c-1.76-.4-3.53-.8-5.33-1.34-5.56-1.69-9.59-4.43-12-8.14C.79,90.08,2.6,83.09,6.6,79.85a11.23,11.23,0,0,1,7.18-2.45,15.7,15.7,0,0,1,8.89,2.94,34,34,0,0,1,6.71,6.87c.69.85,1.34,1.66,2,2.42.83.94,2.36,2.69,3.24,3a7.47,7.47,0,0,0,2.42.42,3.73,3.73,0,0,0,.9-.09,2.19,2.19,0,0,0,1.35-1.44,3.31,3.31,0,0,0-.45-2.63,5.1,5.1,0,0,0-2.72-2c-.44-.14-1-.26-1.54-.39A15.8,15.8,0,0,1,30.3,85a10.24,10.24,0,0,1-4.87-12,9.68,9.68,0,0,1,9.16-6.56,9.18,9.18,0,0,1,3.45.67,15.58,15.58,0,0,1,5.37,4.08l.21.22a11.49,11.49,0,0,0,2.44,2.2,2.73,2.73,0,0,0,1.27.29,3.69,3.69,0,0,0,2.76-1.24,3.51,3.51,0,0,0,.58-3.61c-1.23-3-5.26-4.87-12.33-5.62-2.12-.23-4.27-.31-6.55-.39-5-.19-10.19-.39-15.27-2.17C8,57.92,1.57,50.67.24,42.43c-1.5-9.29,4.2-19,12.71-21.63A18.16,18.16,0,0,1,18.26,20c6.38,0,13.26,3.34,18.86,9.15.65.68,1.3,1.38,2,2.15a10.32,10.32,0,0,1,5.1-6.3,7.67,7.67,0,0,1,1-.42c-4.91-3.39-9.43-9-8.06-15.23a11.31,11.31,0,0,1,4.46-6.58A14.57,14.57,0,0,1,50.45,0a19.82,19.82,0,0,1,5,.65C64.66,3,70.92,10.26,77,18.08,80,21.86,88.23,30.83,100.79,32.57l.39.07c22.38,3.43,38.59,29.4,37.72,60.42C138,125.8,118.59,151.44,94.75,151.44Zm-.81-.76h.81c23.43,0,42.49-25.32,43.4-57.65.86-30.65-15.09-56.3-37.1-59.66h0l-.33-.07C87.85,31.54,79.46,22.39,76.45,18.54c-6-7.72-12.21-14.84-21.23-17.17A19.22,19.22,0,0,0,50.45.75,13.84,13.84,0,0,0,42,3.38a10.59,10.59,0,0,0-4.18,6.14c-1.34,6.1,3.44,11.68,8.37,14.86a.37.37,0,0,1,.17.37.38.38,0,0,1-.27.31,9,9,0,0,0-1.57.62,9.6,9.6,0,0,0-4.89,6.49.38.38,0,0,1-.65.17c-.83-1-1.62-1.83-2.41-2.66C31.12,24,24.44,20.76,18.26,20.76a17,17,0,0,0-5.09.76C5,24.05-.46,33.38,1,42.32c1.28,8,7.48,15,15.78,17.89,5,1.75,10.1,1.94,15,2.13,2.3.08,4.47.17,6.61.39,7.37.78,11.6,2.77,12.95,6.09a4.24,4.24,0,0,1-.7,4.36,4.44,4.44,0,0,1-3.34,1.52,3.4,3.4,0,0,1-1.62-.38A11.75,11.75,0,0,1,43.07,72l-.2-.22a15.05,15.05,0,0,0-5.11-3.89,8.33,8.33,0,0,0-3.17-.62,8.9,8.9,0,0,0-8.44,6,9.48,9.48,0,0,0,4.5,11.1,15.13,15.13,0,0,0,4.09,1.37c.59.14,1.14.26,1.62.42a5.8,5.8,0,0,1,3.11,2.32A4.08,4.08,0,0,1,40,91.73a2.88,2.88,0,0,1-1.87,2,7.57,7.57,0,0,1-3.77-.34c-1-.35-2.29-1.78-3.55-3.22-.68-.77-1.33-1.58-2-2.44A33.62,33.62,0,0,0,22.24,81a15,15,0,0,0-8.46-2.8,10.52,10.52,0,0,0-6.71,2.28c-3.74,3-5.42,9.6-1.75,15.32,2.29,3.56,6.18,6.19,11.57,7.83,1.77.53,3.53.93,5.23,1.32a52.76,52.76,0,0,1,6,1.61c8.73,3.12,15.2,11,21.45,18.66l1.68,2a77.88,77.88,0,0,0,17.47,15c6.1,3.86,15.31,8.48,24.57,8.48Z"/><path class="cls-3" d="M100.21,36.78h0C88.24,35.11,79,27.4,73.7,20.69S62.59,6.88,54.35,4.75C50.89,3.86,47,4,44.11,6.16a7.3,7.3,0,0,0-2.88,4.11c-1,4.75,3.57,9.14,7.18,11.39C54.58,25.5,62.5,24,68.76,27.93c3.22,2,5.52,5.94,2.71,9.36a6.36,6.36,0,0,1-5,2.24c-3.17-.09-5.75-2.54-7.73-4.77-2.27-2.56-4.53-5.53-8-6.4a6.61,6.61,0,0,0-4.55.43,6.22,6.22,0,0,0-3.21,5.66c.1,3.46,2.86,6.26,6.06,7.2,2.78.82,5.91.45,8.43,1.88a6.16,6.16,0,0,1,3.09,4.75,5.37,5.37,0,0,1-2.53,5c-2.12,1.25-4.68.35-6.51-1-2.41-1.83-4.23-4.32-6.17-6.6-3.8-4.46-7.14-9.3-11.2-13.53-5.15-5.35-12.77-9.45-19.87-7.25C7.42,27,3.29,34.75,4.42,41.76s6.79,12.82,13.5,15.16,13.88,1.61,20.87,2.35c5.76.61,13.35,2.18,15.81,8.24A7.74,7.74,0,0,1,44.07,77.4a15.27,15.27,0,0,1-3.74-3.26,11.74,11.74,0,0,0-3.89-3.06,5.41,5.41,0,0,0-7,3.28,6.08,6.08,0,0,0,2.86,7c1.57.85,3.42,1,5.12,1.54a9.33,9.33,0,0,1,5,3.76,7.56,7.56,0,0,1,.93,6.1A6.35,6.35,0,0,1,39.06,97a10.61,10.61,0,0,1-5.85-.41c-1.93-.69-3.7-2.71-5-4.21-2.59-3-4.78-6.35-8-8.63s-7.9-3.13-10.95-.65-3.14,7.42-1,10.73,5.88,5.23,9.64,6.37,7.72,1.67,11.42,3C39.78,107,46.9,116.42,54,125s24.81,22.6,40,22.2c21.62.61,39.85-23.68,40.71-54.24C135.48,63.88,120.3,39.62,100.21,36.78Z"/><path class="cls-1" d="M125.46,106.51a1.21,1.21,0,0,1-1.06.73,1.09,1.09,0,0,1-.74-.36,9.3,9.3,0,0,0-.74-.68c-4.57,16.68-15.93,27.58-28.58,27.22s-23.38-11.87-27-28.78a6.52,6.52,0,0,0-.78.63,1,1,0,0,1-.76.32,1.21,1.21,0,0,1-1-.78,2.33,2.33,0,0,1,.37-2.53A8.76,8.76,0,0,1,70.8,99.7c.71,0,1.28.77,1.29,1.77s-.57,1.84-1.28,1.87a5.11,5.11,0,0,0-1,.14c3.3,15.45,13.1,26,24.65,26.31s21.94-9.64,26.1-24.89a7.21,7.21,0,0,0-1-.2c-.71-.06-1.24-.92-1.18-1.93s.69-1.76,1.39-1.69a8.75,8.75,0,0,1,5.5,2.89A2.33,2.33,0,0,1,125.46,106.51Zm-40.74-4.6c3.17.09,6-7.58,6.23-17.14s-2.09-17.38-5.26-17.46-6,7.58-6.23,17.14S81.54,101.82,84.72,101.91Zm21,.59c3.17.09,6-7.58,6.23-17.14S109.87,68,106.69,67.9s-6,7.58-6.23,17.14S102.55,102.41,105.72,102.5Z"/></g></g></svg>