<svg width="14" height="20" viewBox="0 0 14 20" fill="none" xmlns="http://www.w3.org/2000/svg">
<g clip-path="url(#clip0_37_45)">
<path d="M3.7167 20C5.55669 20 7.05003 18.5067 7.05003 16.6667V13.3334H3.7167C1.8767 13.3334 0.383362 14.8267 0.383362 16.6667C0.383362 18.5067 1.8767 20 3.7167 20Z" fill="#0ACF83"/>
<path d="M0.383362 9.99996C0.383362 8.15996 1.8767 6.66663 3.7167 6.66663H7.05003V13.3333H3.7167C1.8767 13.3333 0.383362 11.84 0.383362 9.99996Z" fill="#A259FF"/>
<path d="M0.383362 3.33333C0.383362 1.49333 1.8767 0 3.7167 0H7.05003V6.66667H3.7167C1.8767 6.66667 0.383362 5.17333 0.383362 3.33333Z" fill="#F24E1E"/>
<path d="M7.04999 0H10.3833C12.2233 0 13.7167 1.49333 13.7167 3.33333C13.7167 5.17333 12.2233 6.66667 10.3833 6.66667H7.04999V0Z" fill="#FF7262"/>
<path d="M13.7167 9.99996C13.7167 11.84 12.2233 13.3333 10.3833 13.3333C8.54332 13.3333 7.04999 11.84 7.04999 9.99996C7.04999 8.15996 8.54332 6.66663 10.3833 6.66663C12.2233 6.66663 13.7167 8.15996 13.7167 9.99996Z" fill="#1ABCFE"/>
</g>
<defs>
<clipPath id="clip0_37_45">
<rect width="13.34" height="20" fill="white" transform="translate(0.380005)"/>
</clipPath>
</defs>
</svg>
