<svg width="15" height="20" viewBox="0 0 15 20" fill="none" xmlns="http://www.w3.org/2000/svg">
<g clip-path="url(#clip0_37_33)">
<path d="M14.1618 3.92053L12.8742 18.3449L7.08638 19.9495L1.31452 18.3471L0.0282593 3.92053H14.1618Z" fill="#E44D26"/>
<path d="M7.09497 18.723L11.7718 17.4264L12.8721 5.1001H7.09497V18.723Z" fill="#F16529"/>
<path d="M4.59195 8.63887H7.095V6.86951H2.65826L2.70059 7.34419L3.13549 12.2201H7.095V10.4507H4.75367L4.59195 8.63887ZM4.99073 13.1048H3.21455L3.46242 15.883L7.08685 16.8891L7.095 16.8868V15.046L7.08724 15.048L5.11671 14.5159L4.99073 13.1048Z" fill="#EBEBEB"/>
<path d="M1.3432 0H2.24237V0.888366H3.06492V0H3.96414V2.69019H3.06497V1.78936H2.24242V2.69019H1.34326L1.3432 0ZM5.14652 0.892133H4.35506V0H6.83783V0.892133H6.04586V2.69019H5.14669V0.892133H5.14652ZM7.23184 0H8.16941L8.74614 0.945263L9.32231 0H10.2603V2.69019H9.36475V1.35679L8.74614 2.3133H8.73062L8.11162 1.35679V2.69019H7.23184V0ZM10.7077 0H11.6072V1.801H12.8717V2.69019H10.7077L10.7077 0Z" fill="black"/>
<path d="M7.08892 12.2201H9.2677L9.06227 14.5148L7.08887 15.0475V16.8882L10.7162 15.883L10.7428 15.584L11.1586 10.9259L11.2018 10.4507H7.08892V12.2201ZM7.08892 8.63455V8.63887H11.3628L11.3982 8.2412L11.4789 7.34419L11.5212 6.86951H7.08892V8.63455Z" fill="white"/>
</g>
<defs>
<clipPath id="clip0_37_33">
<rect width="14.19" height="20" fill="white"/>
</clipPath>
</defs>
</svg>
