<svg width="15" height="20" viewBox="0 0 15 20" fill="none" xmlns="http://www.w3.org/2000/svg">
<g clip-path="url(#clip0_37_39)">
<path d="M7.27638 19.9495L1.50452 18.3471L0.218262 3.92053H14.3518L13.0642 18.3449L7.27638 19.9495Z" fill="#264DE4"/>
<path d="M11.9618 17.4264L13.0621 5.1001H7.28497V18.723L11.9618 17.4264Z" fill="#2965F1"/>
<path d="M3.16694 10.4507L3.3255 12.2201H7.285V10.4507H3.16694ZM2.84827 6.86951L3.0091 8.63887H7.285V6.86951H2.84827ZM7.285 15.046L7.27724 15.048L5.30672 14.5159L5.18073 13.1048H3.40455L3.65242 15.883L7.27685 16.8891L7.285 16.8868V15.046Z" fill="#EBEBEB"/>
<path d="M3.54449 0H5.68743V0.896177H4.44067V1.79235H5.68754V2.68848H3.54449V0ZM6.11607 0H8.25907V0.77928H7.01225V0.935125H8.25907V2.72748H6.11613V1.90914H7.36294V1.7533H6.11602L6.11607 0ZM8.68771 0H10.8307V0.77928H9.58388V0.935125H10.8307V2.72748H8.68771V1.90914H9.93452V1.7533H8.68776L8.68771 0Z" fill="black"/>
<path d="M11.3918 10.4507L11.7112 6.86951H7.27893V8.63887H9.77211L9.61111 10.4507H7.27893V12.2201H9.45771L9.25228 14.5148L7.27887 15.0475V16.8882L10.9062 15.883L10.9328 15.584L11.3486 10.9259L11.3918 10.4507Z" fill="white"/>
</g>
<defs>
<clipPath id="clip0_37_39">
<rect width="14.19" height="20" fill="white" transform="translate(0.190002)"/>
</clipPath>
</defs>
</svg>
