<svg width="14" height="20" viewBox="0 0 14 20" fill="none" xmlns="http://www.w3.org/2000/svg">
<g clip-path="url(#clip0_102_32)">
<path d="M3.33675 20C5.17675 20 6.67008 18.5067 6.67008 16.6667V13.3334H3.33675C1.49675 13.3334 0.00341797 14.8267 0.00341797 16.6667C0.00341797 18.5067 1.49675 20 3.33675 20Z" fill="#0ACF83"/>
<path d="M0.00341797 9.99996C0.00341797 8.15996 1.49675 6.66663 3.33675 6.66663H6.67008V13.3333H3.33675C1.49675 13.3333 0.00341797 11.84 0.00341797 9.99996Z" fill="#A259FF"/>
<path d="M0.00341797 3.33333C0.00341797 1.49333 1.49675 0 3.33675 0H6.67008V6.66667H3.33675C1.49675 6.66667 0.00341797 5.17333 0.00341797 3.33333Z" fill="#F24E1E"/>
<path d="M6.66992 0H10.0033C11.8433 0 13.3366 1.49333 13.3366 3.33333C13.3366 5.17333 11.8433 6.66667 10.0033 6.66667H6.66992V0Z" fill="#FF7262"/>
<path d="M13.3366 9.99996C13.3366 11.84 11.8433 13.3333 10.0033 13.3333C8.16326 13.3333 6.66992 11.84 6.66992 9.99996C6.66992 8.15996 8.16326 6.66663 10.0033 6.66663C11.8433 6.66663 13.3366 8.15996 13.3366 9.99996Z" fill="#1ABCFE"/>
</g>
<defs>
<clipPath id="clip0_102_32">
<rect width="13.34" height="20" fill="white"/>
</clipPath>
</defs>
</svg>
