<svg width="20" height="20" viewBox="0 0 20 20" fill="none" xmlns="http://www.w3.org/2000/svg">
<g clip-path="url(#clip0_102_28)">
<path d="M15.3125 0H4.6875C2.09867 0 0 2.09867 0 4.6875V15.3125C0 17.9013 2.09867 20 4.6875 20H15.3125C17.9013 20 20 17.9013 20 15.3125V4.6875C20 2.09867 17.9013 0 15.3125 0Z" fill="#001E36"/>
<path d="M4.5 13.9094V5.33439C4.5 5.27603 4.525 5.24275 4.58336 5.24275C4.725 5.24275 4.85836 5.24275 5.05 5.23439C5.25 5.22603 5.45836 5.22603 5.68336 5.21775C5.90836 5.20939 6.15 5.20939 6.40836 5.20103C6.66664 5.19275 6.91664 5.19275 7.16664 5.19275C7.85 5.19275 8.41664 5.27603 8.88336 5.45103C9.30169 5.5931 9.68313 5.82654 10 6.13439C10.2685 6.4038 10.476 6.72779 10.6084 7.08439C10.7334 7.43439 10.8 7.79275 10.8 8.16775C10.8 8.88439 10.6334 9.47603 10.3 9.94275C9.96664 10.4094 9.5 10.7594 8.95836 10.9594C8.39164 11.1677 7.76664 11.2427 7.08336 11.2427C6.88336 11.2427 6.75 11.2427 6.66664 11.2344C6.58336 11.226 6.46664 11.226 6.30836 11.226V13.901C6.31664 13.9594 6.275 14.0094 6.21664 14.0177H4.6C4.53336 14.0177 4.5 13.9844 4.5 13.9094ZM6.31664 6.85103V9.65103C6.43336 9.65939 6.54164 9.66775 6.64164 9.66775H7.08336C7.40836 9.66775 7.73336 9.61775 8.04164 9.51775C8.30836 9.44275 8.54164 9.28439 8.725 9.07603C8.9 8.86775 8.98336 8.58439 8.98336 8.21775C8.99118 7.95732 8.92468 7.70005 8.79164 7.47603C8.65 7.25939 8.45 7.09275 8.20836 7.00103C7.9 6.87603 7.56664 6.82603 7.225 6.83439C7.00836 6.83439 6.81664 6.83439 6.65836 6.84275C6.49164 6.83439 6.375 6.84275 6.31664 6.85103ZM16 9.14275C15.75 9.00939 15.4834 8.91775 15.2 8.85939C14.8916 8.79275 14.5834 8.75103 14.2666 8.75103C14.1 8.74275 13.925 8.76775 13.7666 8.80939C13.6584 8.83439 13.5666 8.89275 13.5084 8.97603C13.4666 9.04275 13.4416 9.12603 13.4416 9.20103C13.4416 9.27603 13.475 9.35103 13.525 9.41775C13.6 9.50939 13.7 9.58439 13.8084 9.64275C14.0016 9.74281 14.199 9.83456 14.4 9.91775C14.85 10.0677 15.2834 10.276 15.6834 10.526C15.9584 10.701 16.1834 10.9344 16.3416 11.2177C16.475 11.4844 16.5416 11.776 16.5334 12.076C16.5416 12.4677 16.425 12.8594 16.2084 13.1844C15.9759 13.517 15.6516 13.7748 15.275 13.926C14.8666 14.101 14.3666 14.1927 13.7666 14.1927C13.3834 14.1927 13.0084 14.1594 12.6334 14.0844C12.3394 14.0336 12.0536 13.944 11.7834 13.8177C11.725 13.7844 11.6834 13.726 11.6916 13.6594V12.2094C11.6916 12.1844 11.7 12.151 11.725 12.1344C11.75 12.1177 11.775 12.126 11.8 12.1427C12.125 12.3344 12.4666 12.4677 12.8334 12.551C13.15 12.6344 13.4834 12.676 13.8166 12.676C14.1334 12.676 14.3584 12.6344 14.5084 12.5594C14.6416 12.501 14.7334 12.3594 14.7334 12.2094C14.7334 12.0927 14.6666 11.9844 14.5334 11.876C14.4 11.7677 14.125 11.6427 13.7166 11.4844C13.2978 11.3368 12.9 11.1351 12.5334 10.8844C12.2722 10.6983 12.0559 10.4563 11.9 10.176C11.7666 9.90939 11.7 9.61775 11.7084 9.32603C11.7084 8.96775 11.8084 8.62603 11.9916 8.31775C12.2 7.98439 12.5084 7.71775 12.8666 7.55103C13.2584 7.35103 13.75 7.25939 14.3416 7.25939C14.6834 7.25939 15.0334 7.28439 15.375 7.33439C15.625 7.36775 15.8666 7.43439 16.0916 7.52603C16.125 7.53439 16.1584 7.56775 16.175 7.60103C16.1834 7.63439 16.1916 7.66775 16.1916 7.70103V9.05939C16.1916 9.09275 16.175 9.12603 16.15 9.14275C16.075 9.15939 16.0334 9.15939 16 9.14275Z" fill="#31A8FF"/>
</g>
<defs>
<clipPath id="clip0_102_28">
<rect width="20" height="20" fill="white"/>
</clipPath>
</defs>
</svg>
