<svg width="20" height="20" viewBox="0 0 20 20" fill="none" xmlns="http://www.w3.org/2000/svg">
<path d="M10.107 11.6875C9.80633 11.8256 9.47696 12.0056 8.81758 12.3675C8.56758 12.5081 8.30633 12.6487 8.06321 12.7812C8.04633 12.7644 8.02883 12.7431 8.01196 12.7256C6.70758 11.3319 4.29508 10.3475 4.39758 8.47561C4.43571 7.79373 4.67008 6.00373 9.03071 3.82998C12.6195 2.06123 15.4751 2.55123 15.9682 3.63811C16.677 5.18748 14.4376 8.07061 10.7313 8.48873C10.3211 8.57193 9.89749 8.56189 9.4917 8.45933C9.08592 8.35677 8.70836 8.16433 8.38696 7.89623C8.19071 7.68311 8.16133 7.67061 8.08883 7.71311C7.96946 7.77561 8.04633 7.96873 8.08883 8.07936C8.23021 8.33532 8.42147 8.56035 8.6513 8.74113C8.88114 8.9219 9.14489 9.05477 9.42696 9.13186C10.8855 9.44711 12.4061 9.29648 13.7745 8.70123C16.0207 7.83186 17.7745 5.41498 17.2607 3.38873C16.7451 1.33436 13.3351 0.656859 10.1088 1.80311C8.08838 2.48398 6.22166 3.5558 4.61508 4.95748C2.83758 6.61998 2.55633 8.06498 2.67133 8.66998C3.08508 10.8181 6.04633 12.2162 7.23383 13.2519C7.17133 13.2862 7.11883 13.3144 7.07195 13.3412C6.47945 13.6356 4.22071 14.8162 3.65758 16.065C3.01821 17.48 3.76008 18.4944 4.25008 18.6306C4.98851 18.8075 5.76375 18.7493 6.46753 18.4643C7.17131 18.1792 7.7685 17.6815 8.17571 17.0406C8.5215 16.5092 8.73384 15.9021 8.79467 15.2709C8.8555 14.6398 8.76301 14.0033 8.52508 13.4156C8.66546 13.3036 8.81517 13.2039 8.97258 13.1175C9.27508 12.9387 9.56321 12.7625 9.81883 12.6262C10.6941 12.2163 11.6492 12.0052 12.6157 12.0081C14.6445 12.2469 15.0451 13.5125 14.9682 14.0456C14.9322 14.2348 14.8562 14.414 14.7451 14.5713C14.6341 14.7286 14.4907 14.8603 14.3245 14.9575C14.1838 15.0469 14.137 15.0769 14.1495 15.1406C14.1663 15.2344 14.2345 15.23 14.3538 15.2131C14.6586 15.1168 14.9272 14.9305 15.1242 14.6787C15.3212 14.427 15.4374 14.1215 15.4576 13.8025C15.5201 12.5525 14.3282 11.1812 12.2182 11.1937C11.5864 11.1948 10.9609 11.3194 10.377 11.5606C10.2832 11.5994 10.1922 11.641 10.1038 11.6856L10.107 11.6875ZM7.09133 16.5869C6.41758 17.32 5.48008 17.5969 5.07508 17.3625C4.63758 17.1125 4.81071 16.0281 5.63758 15.2525C6.12731 14.8112 6.65662 14.416 7.21883 14.0719C7.31696 14.0094 7.46196 13.9269 7.63633 13.8219L7.68321 13.7962L7.78571 13.7337C7.93318 14.2282 7.9466 14.7529 7.82459 15.2543C7.70258 15.7556 7.44952 16.2155 7.09133 16.5869Z" fill="#CD6799"/>
</svg>
