<svg width="20" height="20" viewBox="0 0 20 20" fill="none" xmlns="http://www.w3.org/2000/svg">
<path d="M10.1069 11.6875C9.80627 11.8256 9.47689 12.0056 8.81752 12.3675C8.56752 12.5081 8.30627 12.6487 8.06314 12.7812C8.04627 12.7644 8.02877 12.7431 8.01189 12.7256C6.70752 11.3319 4.29502 10.3475 4.39752 8.47561C4.43564 7.79373 4.67002 6.00373 9.03064 3.82998C12.6194 2.06123 15.475 2.55123 15.9681 3.63811C16.6769 5.18748 14.4375 8.07061 10.7313 8.48873C10.3211 8.57193 9.89743 8.56189 9.49164 8.45933C9.08585 8.35677 8.7083 8.16433 8.38689 7.89623C8.19064 7.68311 8.16127 7.67061 8.08877 7.71311C7.96939 7.77561 8.04627 7.96873 8.08877 8.07936C8.23014 8.33532 8.4214 8.56035 8.65124 8.74113C8.88108 8.9219 9.14483 9.05477 9.42689 9.13186C10.8854 9.44711 12.4061 9.29648 13.7744 8.70123C16.0206 7.83186 17.7744 5.41498 17.2606 3.38873C16.745 1.33436 13.335 0.656859 10.1088 1.80311C8.08832 2.48398 6.2216 3.5558 4.61502 4.95748C2.83752 6.61998 2.55627 8.06498 2.67127 8.66998C3.08502 10.8181 6.04627 12.2162 7.23377 13.2519C7.17127 13.2862 7.11877 13.3144 7.07189 13.3412C6.47939 13.6356 4.22064 14.8162 3.65752 16.065C3.01814 17.48 3.76002 18.4944 4.25002 18.6306C4.98845 18.8075 5.76368 18.7493 6.46747 18.4643C7.17125 18.1792 7.76844 17.6815 8.17564 17.0406C8.52144 16.5092 8.73378 15.9021 8.79461 15.2709C8.85544 14.6398 8.76295 14.0033 8.52502 13.4156C8.6654 13.3036 8.81511 13.2039 8.97252 13.1175C9.27502 12.9387 9.56314 12.7625 9.81877 12.6262C10.694 12.2163 11.6492 12.0052 12.6156 12.0081C14.6444 12.2469 15.045 13.5125 14.9681 14.0456C14.9322 14.2348 14.8561 14.414 14.7451 14.5713C14.634 14.7286 14.4906 14.8603 14.3244 14.9575C14.1838 15.0469 14.1369 15.0769 14.1494 15.1406C14.1663 15.2344 14.2344 15.23 14.3538 15.2131C14.6586 15.1168 14.9271 14.9305 15.1241 14.6787C15.3211 14.427 15.4373 14.1215 15.4575 13.8025C15.52 12.5525 14.3281 11.1812 12.2181 11.1937C11.5863 11.1948 10.9609 11.3194 10.3769 11.5606C10.2831 11.5994 10.1921 11.641 10.1038 11.6856L10.1069 11.6875ZM7.09127 16.5869C6.41752 17.32 5.48002 17.5969 5.07502 17.3625C4.63752 17.1125 4.81064 16.0281 5.63752 15.2525C6.12725 14.8112 6.65656 14.416 7.21877 14.0719C7.31689 14.0094 7.46189 13.9269 7.63627 13.8219L7.68314 13.7962L7.78564 13.7337C7.93312 14.2282 7.94654 14.7529 7.82452 15.2543C7.70251 15.7556 7.44946 16.2155 7.09127 16.5869Z" fill="#CD6799"/>
</svg>
